<?xml version="1.0" encoding="UTF-8" standalone="no"?>
<svg
   xmlns:dc="http://purl.org/dc/elements/1.1/"
   xmlns:cc="http://creativecommons.org/ns#"
   xmlns:rdf="http://www.w3.org/1999/02/22-rdf-syntax-ns#"
   xmlns:svg="http://www.w3.org/2000/svg"
   xmlns="http://www.w3.org/2000/svg"
   xmlns:sodipodi="http://sodipodi.sourceforge.net/DTD/sodipodi-0.dtd"
   xmlns:inkscape="http://www.inkscape.org/namespaces/inkscape"
   inkscape:version="1.0 (4035a4fb49, 2020-05-01)"
   sodipodi:docname="logo.svg"
   width="500"
   height="150"
   viewBox="0 0 132.29166 39.687501"
   version="1.1"
   id="svg8">
  <sodipodi:namedview
     inkscape:current-layer="svg8"
     inkscape:window-maximized="1"
     inkscape:window-y="-8"
     inkscape:window-x="-8"
     inkscape:cy="120.96056"
     inkscape:cx="165.51451"
     inkscape:zoom="0.7649687"
     inkscape:object-nodes="false"
     showgrid="false"
     id="namedview22"
     inkscape:window-height="705"
     inkscape:window-width="1366"
     inkscape:pageshadow="2"
     inkscape:pageopacity="0"
     guidetolerance="10"
     gridtolerance="10"
     objecttolerance="10"
     borderopacity="1"
     bordercolor="#666666"
     pagecolor="#ffffff" />
  <title
     id="title1037">Fluffy Cat Logo</title>
  <defs
     id="defs2" />
  <metadata
     id="metadata5">
    <rdf:RDF>
      <cc:Work
         rdf:about="">
        <dc:format>image/svg+xml</dc:format>
        <dc:type
           rdf:resource="http://purl.org/dc/dcmitype/StillImage" />
        <dc:title>Fluffy Cat Logo</dc:title>
      </cc:Work>
    </rdf:RDF>
  </metadata>
  <path
     d="m 14.438855,11.670697 q -0.285521,0.190348 -0.69001,0.190348 -0.237935,0 -0.416386,-0.04759 -0.309314,-0.05948 -1.023118,-0.05948 -1.475194,0 -3.3786711,0.214141 -1.8915798,0.214141 -2.5934868,0.499662 -0.7494939,2.260379 -0.9279448,5.389218 0.4877659,-0.07138 0.9874285,-0.130864 1.8439929,-0.190347 3.4381545,-0.487766 1.3324337,-0.237934 2.1414107,-0.237934 1.808303,0 1.808303,1.261053 0,0.226038 -0.356902,0.61863 -0.345005,0.380695 -0.749494,0.547249 -0.404488,0.166555 -1.498987,0.321212 l -3.1883236,0.392592 q -1.8320962,0.226038 -2.7124541,0.452076 -0.130864,0.05948 -0.2022444,0.226038 -0.059484,0.154657 -0.1665542,1.439504 -0.095174,1.27295 -0.095174,2.355552 l 0.047587,1.510885 q 0,1.403814 -1.3086402,1.403814 -0.6662168,0 -1.2729499,-0.487766 -0.5948364,-0.487766 -0.5948364,-1.320537 0,-1.546575 0.3569018,-4.43748 0.023794,-0.130864 1.2372598,-8.791682 0,-0.404489 -0.1189673,-0.690011 -0.1784509,-0.511559 -0.1784509,-0.820874 0,-0.428282 0.4996626,-0.892254 0.5115593,-0.4758696 0.9398415,-0.4758696 0.2855215,0 0.5948364,0.07138 0.440179,0.095174 0.9160481,0.095174 0.4639725,0 3.8069532,-0.3806953 2.1771016,-0.2379346 3.2478066,-0.2379346 1.13019,0 1.748819,0.3569019 0.630527,0.3450051 0.630527,0.6305266 0,0.999325 -0.927945,1.534678 z"
     style="font-style:normal;font-variant:normal;font-weight:bold;font-stretch:normal;font-size:24.3645px;line-height:1.25;font-family:'Segoe Print';-inkscape-font-specification:'Segoe Print Bold';letter-spacing:1.05833px;word-spacing:0px;fill:#ececec;fill-opacity:1;stroke:#ececec;stroke-width:0.529167;stroke-linecap:round;stroke-linejoin:round;stroke-miterlimit:4;stroke-dasharray:none;stroke-opacity:1"
     id="path852" />
  <path
     d="m 20.993474,6.3766532 q 1.284847,0 1.284847,1.403814 0,0.6424233 -0.178451,1.3919172 -0.178451,0.7375972 -0.975532,3.6760896 -0.58294,2.129514 -0.892255,4.65162 -0.297418,2.51021 -0.297418,3.925921 0,1.510884 0.226038,3.592812 0.05948,0.559146 0.05948,0.701907 0,0.713804 -0.523456,1.225363 -0.523456,0.511559 -1.142086,0.511559 -0.844668,0 -1.189673,-0.797081 -0.345005,-0.79708 -0.345005,-2.736247 0,-4.175752 0.975531,-9.838595 0.987429,-5.6628425 1.606059,-6.6859611 0.630526,-1.0231187 1.391917,-1.0231187 z"
     style="font-style:normal;font-variant:normal;font-weight:bold;font-stretch:normal;font-size:24.3645px;line-height:1.25;font-family:'Segoe Print';-inkscape-font-specification:'Segoe Print Bold';letter-spacing:1.05833px;word-spacing:0px;fill:#ececec;fill-opacity:1;stroke:#ececec;stroke-width:0.529167;stroke-linecap:round;stroke-linejoin:round;stroke-miterlimit:4;stroke-dasharray:none;stroke-opacity:1"
     id="path854" />
  <path
     d="m 33.020588,22.163612 q -1.142086,2.081927 -2.652971,3.307291 -1.498987,1.225363 -3.045562,1.225363 -0.916048,0 -1.85589,-0.963635 -0.927945,-0.963635 -0.927945,-2.962286 0,-1.415711 0.713804,-4.270925 0.61863,-2.355553 0.61863,-3.580916 0.475869,-0.999325 1.487091,-0.999325 0.69001,0 1.094499,0.463973 0.416386,0.452075 0.416386,0.916048 0,0.844667 -0.594837,2.403139 -0.345005,0.927945 -0.749494,2.629177 -0.392592,1.689335 -0.392592,2.165204 0,1.582265 0.65432,1.582265 1.035016,0 2.795732,-1.986753 1.760715,-1.986754 2.296068,-4.068682 0.535353,-2.03434 0.951738,-2.664867 0.416386,-0.630526 1.177777,-0.630526 1.237259,0 1.237259,1.38002 0,0.202245 -0.202244,0.808978 -0.701907,2.105721 -0.701907,4.746794 0,3.09315 1.046912,3.699883 0.345005,0.202244 0.345005,0.499663 0,0.428282 -0.606733,0.808977 -0.606733,0.380695 -1.153983,0.380695 -0.939841,0 -1.4514,-1.320536 -0.499663,-1.332434 -0.499663,-3.569019 z"
     style="font-style:normal;font-variant:normal;font-weight:bold;font-stretch:normal;font-size:24.3645px;line-height:1.25;font-family:'Segoe Print';-inkscape-font-specification:'Segoe Print Bold';letter-spacing:1.05833px;word-spacing:0px;fill:#ececec;fill-opacity:1;stroke:#ececec;stroke-width:0.529167;stroke-linecap:round;stroke-linejoin:round;stroke-miterlimit:4;stroke-dasharray:none;stroke-opacity:1"
     id="path856" />
  <path
     d="m 43.762855,20.46238 -0.202244,2.129514 q -0.09517,1.023119 -0.09517,2.022444 0,0.904151 0.166554,2.093824 -0.118967,0.416386 -0.594836,0.713804 -0.475869,0.297418 -0.999325,0.297418 -1.629852,0 -1.629852,-2.070031 0,-0.916048 0.511559,-4.377996 0.356902,-2.486416 0.356902,-3.699882 0,-0.07138 -0.142761,-0.166554 -0.820874,-0.523456 -0.820874,-0.999326 0,-0.61863 0.916048,-1.34433 0.440179,-0.345005 0.535353,-0.797081 0.10707,-0.463972 0.297418,-1.451401 0.642423,-3.795056 1.986754,-5.3892177 1.356227,-1.6060583 3.438154,-1.6060583 1.213467,0 2.046238,0.7970808 0.844667,0.7851841 0.844667,1.9510635 0,1.0469121 -0.487766,2.1771017 -0.475869,1.118292 -1.261053,1.118292 -0.345005,0 -0.58294,-0.214141 -0.237934,-0.226038 -0.237934,-0.58294 l 0.07138,-1.035015 q 0,-1.8558898 -0.773287,-1.8558898 -0.963635,0 -1.808303,2.4269328 -0.832771,2.415036 -0.832771,4.116268 0,0.178451 0.226038,0.178451 2.462623,0 3.473845,-0.02379 1.023118,-0.02379 1.023118,0.785184 0,0.785185 -1.237259,1.16588 -1.225363,0.368798 -2.58159,0.368798 -0.916049,0.08328 -1.189673,0.154658 -0.285522,1.760716 -0.416386,3.105046 z"
     style="font-style:normal;font-variant:normal;font-weight:bold;font-stretch:normal;font-size:24.3645px;line-height:1.25;font-family:'Segoe Print';-inkscape-font-specification:'Segoe Print Bold';letter-spacing:1.05833px;word-spacing:0px;fill:#ececec;fill-opacity:1;stroke:#ececec;stroke-width:0.529167;stroke-linecap:round;stroke-linejoin:round;stroke-miterlimit:4;stroke-dasharray:none;stroke-opacity:1"
     id="path858" />
  <path
     d="m 53.862697,20.46238 -0.202244,2.129514 q -0.09517,1.023119 -0.09517,2.022444 0,0.904151 0.166554,2.093824 -0.118967,0.416386 -0.594836,0.713804 -0.475869,0.297418 -0.999325,0.297418 -1.629852,0 -1.629852,-2.070031 0,-0.916048 0.511559,-4.377996 0.356902,-2.486416 0.356902,-3.699882 0,-0.07138 -0.142761,-0.166554 -0.820874,-0.523456 -0.820874,-0.999326 0,-0.61863 0.916048,-1.34433 0.440179,-0.345005 0.535353,-0.797081 0.10707,-0.463972 0.297418,-1.451401 0.642423,-3.795056 1.986754,-5.3892177 1.356227,-1.6060583 3.438154,-1.6060583 1.213467,0 2.046238,0.7970808 0.844667,0.7851841 0.844667,1.9510635 0,1.0469121 -0.487766,2.1771017 -0.475869,1.118292 -1.261053,1.118292 -0.345005,0 -0.582939,-0.214141 -0.237935,-0.226038 -0.237935,-0.58294 l 0.07138,-1.035015 q 0,-1.8558898 -0.773287,-1.8558898 -0.963635,0 -1.808303,2.4269328 -0.832771,2.415036 -0.832771,4.116268 0,0.178451 0.226038,0.178451 2.462623,0 3.473845,-0.02379 1.023118,-0.02379 1.023118,0.785184 0,0.785185 -1.237259,1.16588 -1.225363,0.368798 -2.58159,0.368798 -0.916048,0.08328 -1.189673,0.154658 -0.285522,1.760716 -0.416386,3.105046 z"
     style="font-style:normal;font-variant:normal;font-weight:bold;font-stretch:normal;font-size:24.3645px;line-height:1.25;font-family:'Segoe Print';-inkscape-font-specification:'Segoe Print Bold';letter-spacing:1.05833px;word-spacing:0px;fill:#ececec;fill-opacity:1;stroke:#ececec;stroke-width:0.529167;stroke-linecap:round;stroke-linejoin:round;stroke-miterlimit:4;stroke-dasharray:none;stroke-opacity:1"
     id="path860" />
  <path
     d="m 72.183183,19.510642 q -0.190348,2.890905 -0.678114,5.615255 -0.475869,2.712455 -1.415711,4.925246 -0.927944,2.212792 -2.010547,3.009872 -1.070705,0.808978 -2.557796,0.808978 -1.594162,0 -3.05746,-0.606733 h 0.0119 q -1.261053,-0.523456 -2.200895,-1.403814 -0.927945,-0.880358 -0.927945,-1.487091 0,-0.559147 0.273625,-0.892255 0.285522,-0.333108 0.737597,-0.333108 0.392592,0 0.65432,0.333108 1.522782,1.96296 4.425583,1.96296 1.177777,0 2.272276,-2.462623 1.094499,-2.462622 1.38002,-5.912674 -3.676089,2.902802 -5.662843,2.902802 -1.284846,0 -2.03434,-1.023119 -0.749494,-1.023118 -0.749494,-2.462622 0,-1.439504 0.666217,-4.175752 0.678113,-2.748144 1.142086,-3.402464 0.475869,-0.666217 1.534678,-0.666217 0.571043,0 0.880358,0.499662 0.309314,0.487766 0.309314,1.082603 0,0.178451 -0.856564,2.010547 -1.046912,2.236585 -1.046912,3.85454 0,0.832771 0.226038,1.27295 0.237934,0.428282 0.487766,0.428282 0.571043,0 1.38002,-0.345005 0.820874,-0.345005 1.915373,-1.189673 1.106396,-0.856564 1.427608,-1.296743 0.321212,-0.440179 0.511559,-1.13019 0.190348,-0.701907 0.297418,-3.069356 0.05948,-1.38002 0.130864,-1.736922 0.08328,-0.356902 0.428283,-0.65432 0.345005,-0.297418 0.927944,-0.297418 0.785185,0 1.106396,0.333108 0.333109,0.333109 0.333109,1.570368 z"
     style="font-style:normal;font-variant:normal;font-weight:bold;font-stretch:normal;font-size:24.3645px;line-height:1.25;font-family:'Segoe Print';-inkscape-font-specification:'Segoe Print Bold';letter-spacing:1.05833px;word-spacing:0px;fill:#ececec;fill-opacity:1;stroke:#ececec;stroke-width:0.529167;stroke-linecap:round;stroke-linejoin:round;stroke-miterlimit:4;stroke-dasharray:none;stroke-opacity:1"
     id="path862" />
  <path
     d="m 99.390043,22.38965 q 0.904147,0 0.904147,0.880358 0,1.094499 -2.629173,2.700557 -2.61728,1.594162 -5.068006,1.594162 -2.165205,0 -3.985404,-1.415711 -1.8202,-1.415711 -1.8202,-4.128165 0,-2.760041 1.903477,-6.126815 1.903476,-3.366774 4.711104,-5.484392 2.819525,-2.1176175 5.496289,-2.1176175 1.594163,0 2.545903,0.9517383 0.95174,0.9517382 0.95174,2.2246882 0,1.380021 -0.21415,1.986754 -0.21414,0.594836 -0.91604,1.023118 -0.70191,0.428283 -1.14209,0.428283 -0.452076,0 -0.785184,-0.321212 -0.333109,-0.321212 -0.333109,-0.868461 0,-0.380696 0.202245,-1.106396 0.190347,-0.7257 0.190347,-1.213466 0,-0.820875 -0.559146,-0.820875 -1.713129,0 -3.842643,1.832097 -2.129515,1.832096 -3.652296,4.556447 -1.510884,2.712454 -1.510884,4.794381 0,1.380021 0.79708,2.331759 0.797081,0.951738 2.331759,0.951738 0.904152,0 2.272275,-0.487766 1.380021,-0.487765 2.5459,-1.320536 1.177776,-0.844668 1.606059,-0.844668 z"
     style="font-style:normal;font-variant:normal;font-weight:bold;font-stretch:normal;font-size:24.3645px;line-height:1.25;font-family:'Segoe Print';-inkscape-font-specification:'Segoe Print Bold';letter-spacing:1.05833px;word-spacing:0px;fill:#ececec;fill-opacity:1;stroke:#ececec;stroke-width:0.529167;stroke-linecap:round;stroke-linejoin:round;stroke-miterlimit:4;stroke-dasharray:none;stroke-opacity:1"
     id="path864" />
  <path
     d="m 112.66632,22.532411 q -3.12884,4.128164 -6.04354,4.128164 -1.07071,0 -1.844,-0.844667 -0.77328,-0.844668 -0.77328,-2.153308 0,-3.152633 2.80762,-6.709755 2.80763,-3.569019 5.66285,-3.569019 1.4514,0 1.90347,1.463298 1.36813,0 1.36813,1.046912 0,0.499663 -0.26173,1.808303 -0.47587,2.450726 -0.47587,3.914023 0,1.522782 0.20225,2.141412 0.21414,0.618629 0.30931,0.808977 0.0952,0.190348 0.57104,0.404489 0.47587,0.226038 0.47587,0.630527 0,0.606733 -0.61863,1.011221 -0.60673,0.404489 -1.27295,0.404489 -2.23658,0 -2.01054,-4.485066 z m -0.71381,-6.602685 q -1.20157,0 -3.12884,2.664867 -1.91537,2.652971 -1.91537,4.508861 0,0.975531 0.40449,0.975531 1.40381,0 3.45005,-2.486416 2.05813,-2.498313 2.05813,-4.366099 0,-0.594837 -0.27362,-0.939842 -0.26173,-0.356902 -0.59484,-0.356902 z"
     style="font-style:normal;font-variant:normal;font-weight:bold;font-stretch:normal;font-size:24.3645px;line-height:1.25;font-family:'Segoe Print';-inkscape-font-specification:'Segoe Print Bold';letter-spacing:1.05833px;word-spacing:0px;fill:#ececec;fill-opacity:1;stroke:#ececec;stroke-width:0.529167;stroke-linecap:round;stroke-linejoin:round;stroke-miterlimit:4;stroke-dasharray:none;stroke-opacity:1"
     id="path866" />
  <path
     d="m 124.70533,16.857671 q -0.10708,0 -0.67812,2.652971 -0.55914,2.65297 -0.55914,3.212116 0,0.975532 0.20224,1.368124 0.21414,0.380695 0.69001,0.380695 0.66622,0 1.27295,-0.226038 0.61863,-0.237934 1.61796,-1.046912 0.61863,-0.511559 1.04691,-0.511559 0.345,0 0.54725,0.202244 0.21414,0.190348 0.21414,0.452076 0,1.046912 -1.68934,2.379346 -1.68933,1.320537 -3.56902,1.320537 -1.57036,0 -2.40314,-0.927945 -0.82087,-0.927945 -0.82087,-2.664867 0,-1.606059 1.20157,-6.412337 -0.76139,0.08328 -1.05881,0.08328 h -0.24983 q -0.54725,0 -1.11829,-0.356902 -0.55915,-0.356902 -0.55915,-1.142086 0,-0.999325 1.13019,-0.999325 l 2.5459,-0.09517 q 0.49966,-1.439504 1.05881,-3.771263 0.33311,-1.4514006 1.51088,-1.4514006 0.65432,0 1.02312,0.4044888 0.3688,0.3925918 0.3688,0.8803578 0,0.190348 -1.01122,3.676089 3.78316,-0.333108 4.15196,-0.333108 0.63052,0 0.83277,0.190347 0.20224,0.178451 0.20224,0.701907 0,1.058809 -1.7964,1.344331 z"
     style="font-style:normal;font-variant:normal;font-weight:bold;font-stretch:normal;font-size:24.3645px;line-height:1.25;font-family:'Segoe Print';-inkscape-font-specification:'Segoe Print Bold';letter-spacing:1.05833px;word-spacing:0px;fill:#ececec;fill-opacity:1;stroke:#ececec;stroke-width:0.529167;stroke-linecap:round;stroke-linejoin:round;stroke-miterlimit:4;stroke-dasharray:none;stroke-opacity:1"
     id="path868" />
  <text
     transform="scale(2.520864,0.39668939)"
     xml:space="preserve"
     text-anchor="middle"
     font-family="Arial"
     font-size="28.2486px"
     id="svg_5-6"
     y="247.0417"
     x="-27.77388"
     stroke-width="0"
     stroke="#000000"
     fill="#000000"
     style="font-style:normal;font-weight:normal;line-height:1.25;letter-spacing:1.05833px;word-spacing:0px;fill-opacity:1" />
  <g
     id="svg_29"
     transform="matrix(0.23307971,0.12521256,-0.12521256,0.23307971,33.501101,-38.250054)"
     style="font-style:normal;font-weight:normal;font-size:24.3645px;line-height:1.25;font-family:sans-serif;letter-spacing:1.05833px;word-spacing:0px;fill:#ececec;fill-opacity:1;stroke:#ececec;stroke-width:2.00000003;stroke-miterlimit:4;stroke-dasharray:none">
    <path
       style="fill:#ececec;stroke:#ececec;stroke-width:2.00000003;stroke-miterlimit:4;stroke-dasharray:none"
       id="svg_30"
       fill="#000000"
       d="m 267.03198,92.367897 c -0.094,0.0012 -0.19,0.0059 -0.285,0.01341 -3.79499,0.664902 -5.88196,4.738297 -6.18399,8.330193 -0.44199,3.2594 0.97302,7.4487 4.49899,8.179 0.51102,0.0988 1.04303,0.0537 1.543,-0.084 4.24503,-1.44499 6.14502,-6.5489 5.53201,-10.776497 -0.17898,-2.730408 -2.207,-5.6996 -5.10501,-5.662101 z m -16.08899,0.174706 c -2.36,0.05881 -4.19799,2.488098 -4.57199,4.771698 -0.789,4.524199 1.239,10.145599 5.88201,11.576199 0.43499,0.096 0.88499,0.1059 1.32499,0.037 3.138,-0.53088 4.46802,-4.10269 4.336,-6.98608 -0.094,-3.803608 -2.04001,-8.201603 -5.932,-9.271107 -0.35599,-0.0957 -0.702,-0.136093 -1.03901,-0.127701 z M 277.314,105.3924 c -4.08201,0.2479 -6.88102,4.38229 -7.28,8.24279 -0.53998,2.78441 0.92199,6.50852 4.052,6.73072 4.36499,-0.0546 7.34198,-4.78811 7.466,-8.86112 0.276,-2.69369 -1.28799,-5.96359 -4.238,-6.11239 z m -35.73,0.9174 c -1.737,-0.0152 -3.44499,1.04069 -4.013,2.8327 -1.51399,4.7936 1.52701,10.86461 6.52901,11.872 2.08699,0.36261 3.92099,-1.2647 4.43899,-3.2226 1.097,-4.1877 -1.156,-9.0502 -4.96899,-10.9512 -0.621,-0.3539 -1.30701,-0.52501 -1.98601,-0.5309 z m 18.3,8.5957 c -3.40402,0.007 -6.86301,1.7611 -9.067,4.37169 -2.381,3.04282 -4.332,6.5838 -5.095,10.4238 -0.927,2.76401 1.174,5.94501 4.08501,5.96402 3.502,0.099 6.51199,-2.34201 9.99398,-2.52301 2.95499,-0.457 5.60099,1.103 8.25699,2.12399 2.26203,0.98102 5.38703,0.60501 6.54203,-1.86499 0.90799,-2.51899 -0.42899,-5.20399 -1.53702,-7.44 -2.258,-3.62999 -4.67798,-7.4451 -8.38199,-9.71139 -1.48398,-0.93401 -3.134,-1.3478 -4.797,-1.3441 z" />
  </g>
</svg>
